<svg id="Layer_1" data-name="Layer 1" xmlns="http://www.w3.org/2000/svg" width="64" height="64" viewBox="0 0 64 64"><defs><style>.cls-1{fill:#1d1d1b;}.cls-2{fill:#85bfe9;}.cls-3{fill:#cbe7f5;}.cls-4{fill:#ddc07c;}.cls-5{fill:#e6e4da;}</style></defs><title>international-space-station</title><g id="international-space-station"><path class="cls-1" d="M8.34,28.73s-1.62-.92-1.67-1.25S6.34,7.73,6.79,7.32s6-.25,6-.08S12.17,28.11,12,28.4s-1.37.21-1.5.38-.29.88-.12.88,4.63.54,4.67.25a3.86,3.86,0,0,0,0-.83,8.28,8.28,0,0,1-1.5-.62c-.12-.17.13-21.12.29-21.33s6-.29,6,.08-.71,21-.87,21.29-1.67.58-1.67.71-.17.75,0,.75,5.88,0,6.33,0,.92-.12.92-.12-.37-3,.25-3.29a25.76,25.76,0,0,1,4.13-.21l-.12-1.83s-7.87-.21-8-.58-.37-4.37,0-4.58,4-.17,3.92-.29-.12-.71-.12-.71-1.29-.33-1.29-.54-.42-4-.21-4.13,7.5-.17,7.58.17a22,22,0,0,1-.25,4.5c-.21,0-2.62,0-2.62,0l-.08.75,8.08.42s.13-.46,0-.46-.62-.25-.92-.29-.5,0-.62-.17-.67-1.29-.54-1.37.88-.46.88-.46-.83-1.87.17-3,1.75-.75,2.25-.46a3.28,3.28,0,0,1,.92,1s1.25-.71,1.75-.58a.83.83,0,0,1,.42,1.25,1.47,1.47,0,0,1-1,.58l-.29,1.08s1,.5.83,1-.92,1.29-1.46,1.21l-1.37-.21,0,.75s5.71-.08,5.83.42S43,25,42.38,25.28s-7.83-.54-7.87-.29,0,1.63,0,1.63,3.54.88,3.63,1.17-.12,2,0,2,8.54.13,8.54,0-.12-.87-.12-.87-2.12-.37-2.21-.71-.92-20.42-.46-20.75S50,6.9,50,7.19s0,20.62-.17,20.92a6.17,6.17,0,0,1-1.46.83s-.21.79,0,.83,4.75.21,4.71,0-.08-.54-.08-.54-1.71-.58-1.75-.79S50.84,7.4,51,7.23s5.71-.33,5.83,0,.08,20.92,0,21.17a7.93,7.93,0,0,1-1.75.92s-.08,3.71,0,3.79a12.92,12.92,0,0,1,2.38,1.25c0,.25-.42,11.58-.46,16.13s-.29,6.29-.58,6.42-5.08.38-5.25,0,0-9.46.13-14.83-.08-7.25.13-7.42,1.83-1.12,1.83-1.33S53.21,32,53,32a41.68,41.68,0,0,0-4.58.08c-.08.13-.12,1.33.08,1.42s1.83.83,1.83,1.17-.62,21.88-.79,22.13a24.77,24.77,0,0,1-5.83-.08c-.08-.21,0-21.87.17-22.17s2.5-1.21,2.5-1.42,0-1.29,0-1.29-8.37-.25-8.33-.12.21,1.13,0,1.25-4.17.17-4.17.38-.33.46,0,.58,6,.63,6,.83.13,6-.12,6.13-16.54,0-16.83-.25-.42-6-.25-6.29,6-.37,6-.54.17-.67,0-.67-3.87-.08-4-.33a13,13,0,0,1-.17-1.46l-7.37.38,0,1a15.8,15.8,0,0,1,2.46,1.08c0,.17.46,22,.17,22.17s-5.62.58-5.75-.12S14,34,14,33.78s1.08-1,1.13-1.21.08-.83.08-.83l-4.83-.29v.79s2.5,1,2.54,1.54.13,22.13,0,22.13-5.5.42-5.67,0S6.5,33.48,6.63,33.28s1.83-.79,1.88-1S8.34,28.73,8.34,28.73Z"/><path class="cls-2" d="M8.67,8.78c.29,0,2.17-.17,2.21.13a9.55,9.55,0,0,1-.12,2.71,5.31,5.31,0,0,1-2.29,0C8.38,11.4,8.34,8.82,8.67,8.78Z"/><path class="cls-2" d="M8.59,12.61a5.68,5.68,0,0,1,2.12.08c0,.17,0,2.08,0,2.08s-2.29.25-2.29,0S8.34,12.78,8.59,12.61Z"/><path class="cls-2" d="M8.46,15.78a7.12,7.12,0,0,1,2.21.08c0,.17,0,2.58-.17,2.58l-2.12,0S8.38,15.82,8.46,15.78Z"/><path class="cls-2" d="M8.54,19.44a7.47,7.47,0,0,1,2,.08,10.51,10.51,0,0,1,0,2.79,9.2,9.2,0,0,1-2.17-.12A9.93,9.93,0,0,1,8.54,19.44Z"/><path class="cls-2" d="M8.59,23.11s1.83,0,1.87.17a15.83,15.83,0,0,1-.21,3.5c-.21,0-1.75.13-1.79-.08A25.09,25.09,0,0,1,8.59,23.11Z"/><path class="cls-2" d="M15.42,8.94c.29,0,2.17-.17,2.21.13a9.55,9.55,0,0,1-.12,2.71,5.31,5.31,0,0,1-2.29,0C15.13,11.57,15.09,9,15.42,8.94Z"/><path class="cls-2" d="M15.34,12.78a5.68,5.68,0,0,1,2.13.08c0,.17,0,2.08,0,2.08s-2.29.25-2.29,0S15.09,12.94,15.34,12.78Z"/><path class="cls-2" d="M15.21,15.94a7.12,7.12,0,0,1,2.21.08c0,.17,0,2.58-.17,2.58l-2.13,0S15.13,16,15.21,15.94Z"/><path class="cls-2" d="M15.29,19.61a7.47,7.47,0,0,1,2,.08,10.51,10.51,0,0,1,0,2.79,9.2,9.2,0,0,1-2.17-.12A9.93,9.93,0,0,1,15.29,19.61Z"/><path class="cls-2" d="M15.34,23.28s1.83,0,1.88.17a15.83,15.83,0,0,1-.21,3.5c-.21,0-1.75.13-1.79-.08A25.09,25.09,0,0,1,15.34,23.28Z"/><path class="cls-2" d="M46,8.84c.29,0,2.16-.22,2.21.07a9.55,9.55,0,0,1-.06,2.71,5.31,5.31,0,0,1-2.29.05C45.73,11.47,45.62,8.89,46,8.84Z"/><path class="cls-2" d="M46,12.68a5.68,5.68,0,0,1,2.13,0c0,.17,0,2.08,0,2.08s-2.29.3-2.29.1S45.72,12.85,46,12.68Z"/><path class="cls-2" d="M45.91,15.85a7.12,7.12,0,0,1,2.21,0c0,.17.1,2.58-.11,2.59H45.89S45.83,15.89,45.91,15.85Z"/><path class="cls-2" d="M46.08,19.51a7.47,7.47,0,0,1,2,0,10.51,10.51,0,0,1,.11,2.79A9.2,9.2,0,0,1,46,22.26,9.93,9.93,0,0,1,46.08,19.51Z"/><path class="cls-2" d="M46.21,23.17s1.83-.08,1.88.12A15.83,15.83,0,0,1,48,26.8c-.21,0-1.75.17-1.79,0A25.09,25.09,0,0,1,46.21,23.17Z"/><path class="cls-2" d="M52.92,8.84c.29,0,2.16-.22,2.21.07a9.55,9.55,0,0,1-.06,2.71,5.31,5.31,0,0,1-2.29.05C52.69,11.47,52.58,8.89,52.92,8.84Z"/><path class="cls-2" d="M52.92,12.68a5.68,5.68,0,0,1,2.13,0c0,.17,0,2.08,0,2.08s-2.29.3-2.29.1S52.68,12.85,52.92,12.68Z"/><path class="cls-2" d="M52.87,15.85a7.12,7.12,0,0,1,2.21,0c0,.17.1,2.58-.11,2.59H52.85S52.79,15.89,52.87,15.85Z"/><path class="cls-2" d="M53,19.51a7.47,7.47,0,0,1,2,0,10.51,10.51,0,0,1,.11,2.79A9.2,9.2,0,0,1,53,22.26,9.93,9.93,0,0,1,53,19.51Z"/><path class="cls-2" d="M53.17,23.17S55,23.09,55,23.3a15.83,15.83,0,0,1-.13,3.5c-.21,0-1.75.17-1.79,0A25.09,25.09,0,0,1,53.17,23.17Z"/><path class="cls-2" d="M52.79,54.73c.29.05,2.16.25,2.21-.1a14.08,14.08,0,0,0,0-3.3c-.2-.16-2.2-.31-2.29-.05S52.46,54.67,52.79,54.73Z"/><path class="cls-2" d="M53,50.08a5.68,5.68,0,0,0,2.13,0c0-.17,0-2.08,0-2.08s-2.29-.3-2.29-.1S52.72,49.9,53,50.08Z"/><path class="cls-2" d="M53.12,46.75a8.14,8.14,0,0,0,2.21,0c0-.15.09-2.25-.11-2.26H53.09A21.39,21.39,0,0,0,53.12,46.75Z"/><path class="cls-2" d="M53.29,43.67a10,10,0,0,0,2,0,5.91,5.91,0,0,0,.09-2.09,12.24,12.24,0,0,0-2.17,0A5.6,5.6,0,0,0,53.29,43.67Z"/><path class="cls-2" d="M53.53,37.76a8.25,8.25,0,0,0,1.88-.07,7.83,7.83,0,0,0-.15-2.46,5.94,5.94,0,0,0-1.79,0A12.35,12.35,0,0,0,53.53,37.76Z"/><path class="cls-2" d="M53.34,40.83a10.88,10.88,0,0,0,2.08-.06c0-.13.05-2.25-.18-2.28a7.85,7.85,0,0,0-2,0A9.63,9.63,0,0,0,53.34,40.83Z"/><path class="cls-2" d="M45.67,54.48c.29.05,2.16.25,2.21-.1a14.08,14.08,0,0,0,0-3.3c-.2-.16-2.2-.31-2.29-.05S45.33,54.42,45.67,54.48Z"/><path class="cls-2" d="M45.84,49.83a5.68,5.68,0,0,0,2.13,0c0-.17,0-2.08,0-2.08s-2.29-.3-2.29-.1S45.59,49.65,45.84,49.83Z"/><path class="cls-2" d="M46,46.5a8.14,8.14,0,0,0,2.21,0c0-.15.09-2.25-.11-2.26H46A21.39,21.39,0,0,0,46,46.5Z"/><path class="cls-2" d="M46.17,43.42a10,10,0,0,0,2,0,5.91,5.91,0,0,0,.09-2.09,12.24,12.24,0,0,0-2.17,0A5.6,5.6,0,0,0,46.17,43.42Z"/><path class="cls-2" d="M46.4,37.51a8.25,8.25,0,0,0,1.88-.07A7.83,7.83,0,0,0,48.13,35a5.94,5.94,0,0,0-1.79,0A12.35,12.35,0,0,0,46.4,37.51Z"/><path class="cls-2" d="M46.21,40.58a10.88,10.88,0,0,0,2.08-.06c0-.13.05-2.25-.18-2.28a7.85,7.85,0,0,0-2,0A9.63,9.63,0,0,0,46.21,40.58Z"/><path class="cls-2" d="M16.16,54.36c.29,0,2.17.15,2.2-.2a14.08,14.08,0,0,0-.2-3.29c-.21-.15-2.21-.2-2.29.05S15.83,54.32,16.16,54.36Z"/><path class="cls-2" d="M16.12,49.71a5.68,5.68,0,0,0,2.12-.13c0-.17-.09-2.08-.09-2.08s-2.3-.2-2.29,0S15.87,49.55,16.12,49.71Z"/><path class="cls-2" d="M16.12,46.37a8.14,8.14,0,0,0,2.21-.12c0-.15,0-2.26-.22-2.25L16,44.08A21.39,21.39,0,0,0,16.12,46.37Z"/><path class="cls-2" d="M16.15,43.29a10,10,0,0,0,2-.11,5.91,5.91,0,0,0,0-2.09,12.24,12.24,0,0,0-2.16.14A5.6,5.6,0,0,0,16.15,43.29Z"/><path class="cls-2" d="M16.11,37.37A8.25,8.25,0,0,0,18,37.21a7.83,7.83,0,0,0-.26-2.45,5.94,5.94,0,0,0-1.79.1A12.35,12.35,0,0,0,16.11,37.37Z"/><path class="cls-2" d="M16.06,40.46a10.88,10.88,0,0,0,2.08-.16c0-.14-.05-2.25-.28-2.27a7.85,7.85,0,0,0-2,.1A9.63,9.63,0,0,0,16.06,40.46Z"/><path class="cls-2" d="M9,54.2c.29,0,2.17.15,2.2-.2A14.08,14.08,0,0,0,11,50.7c-.21-.15-2.21-.2-2.29.05S8.7,54.15,9,54.2Z"/><path class="cls-2" d="M9,49.54a5.68,5.68,0,0,0,2.12-.13c0-.17-.09-2.08-.09-2.08s-2.3-.2-2.29,0S8.74,49.38,9,49.54Z"/><path class="cls-2" d="M9,46.21a8.14,8.14,0,0,0,2.21-.12c0-.15,0-2.26-.22-2.25l-2.12.09A21.39,21.39,0,0,0,9,46.21Z"/><path class="cls-2" d="M9,43.12A10,10,0,0,0,11,43a5.91,5.91,0,0,0,0-2.09,12.24,12.24,0,0,0-2.16.14A5.6,5.6,0,0,0,9,43.12Z"/><path class="cls-2" d="M9,37.21A8.25,8.25,0,0,0,10.86,37a7.83,7.83,0,0,0-.26-2.45,5.94,5.94,0,0,0-1.79.1A12.35,12.35,0,0,0,9,37.21Z"/><path class="cls-2" d="M8.93,40.29A10.88,10.88,0,0,0,11,40.13c0-.14-.05-2.25-.28-2.27a7.85,7.85,0,0,0-2,.1A9.63,9.63,0,0,0,8.93,40.29Z"/><path class="cls-3" d="M24.42,14.69s5.17-.08,5.21.08a10.15,10.15,0,0,1-.21,2.58c-.17,0-5,0-5.12-.17A9.67,9.67,0,0,1,24.42,14.69Z"/><path class="cls-4" d="M36.46,13.94c.17,0,.79.33.5.58s-.87.21-.92.46-.54.58.25.63A5.79,5.79,0,0,0,38.38,15s-.62,1.58-.5,1.75.5.25.58.38.17.58,0,.63A2.28,2.28,0,0,1,35.88,17C34.84,15.69,35.17,14.15,36.46,13.94Z"/><path class="cls-5" d="M22.75,20.69c.3-.4,5.33,0,10.46.17s7.75.25,7.88.5.13,2.13-.12,2.13-7.83-.67-8-.33a17.83,17.83,0,0,0-.29,4.63c.21.13,3.75.67,3.83,1a4.34,4.34,0,0,1,0,1.13l-1-.75s-.33.38-.21.54,1.42,1.46,1.21,1.58-.42.25-.58.17-1.75-2.12-2-2.17a2.15,2.15,0,0,0-.71.13l1.42,2.08a2.19,2.19,0,0,1-.71,0c-.12-.08-1.46-1.75-1.75-1.79a.82.82,0,0,0-.5.08l1.17,2s-.92.17-.92.58-.33,2.79.17,2.88,5.92.63,6,.88a2,2,0,0,1,.08.79s-1.08-.29-1.08,0,1,1.88.75,2.08-.58.38-.67.21-2-2.54-2-2.54-.71,0-.67.17S36.21,38.9,36,39a4,4,0,0,1-1,0A15.94,15.94,0,0,0,33.38,37c-.21,0-.54,0-.58.17a11.13,11.13,0,0,0,1.08,1.88s-4.54-.08-6.54,0-2.67.13-2.67-.08a24.26,24.26,0,0,1-.08-3.46c.17-.12,5.88-.12,5.92-.37s-.17-3-.17-3a33,33,0,0,1-3.83-.46c-.12-.17-.33-3.75-.08-3.83s4.38,0,4.46-.46a26.25,26.25,0,0,0-.17-4.54c-.17-.08-7.67-.17-7.83-.33A3.75,3.75,0,0,1,22.75,20.69Z"/><path class="cls-1" d="M27.29,28.4c.07-.1.92-.21,1,0a11.4,11.4,0,0,1,0,2.67c-.12.13-.75.29-.92,0A8.55,8.55,0,0,1,27.29,28.4Z"/></g></svg>